<?xml version="1.0" encoding="UTF-8"?>
<svg version="1.1" xmlns="http://www.w3.org/2000/svg" width="577" height="433">
<path d="M0 0 C1.50433594 -0.0309375 1.50433594 -0.0309375 3.0390625 -0.0625 C12.38517733 -0.11208151 12.38517733 -0.11208151 16.25 3.25 C18.60048538 6.77572807 18.91397817 8.10013645 18.25 12.25 C15.45778507 15.64593708 13.84285173 17.00104224 9.48364258 17.68237305 C8.50548584 17.74980713 7.5273291 17.81724121 6.51953125 17.88671875 C5.03803589 17.99632935 5.03803589 17.99632935 3.52661133 18.1081543 C2.77532959 18.15496338 2.02404785 18.20177246 1.25 18.25 C0.86666504 19.46059082 0.48333008 20.67118164 0.08837891 21.91845703 C-1.33873815 26.42494875 -2.76644894 30.93125218 -4.19433594 35.4375 C-4.81135911 37.38504008 -5.42822289 39.33263067 -6.04492188 41.28027344 C-6.93317074 44.08542066 -7.8219993 46.89038365 -8.7109375 49.6953125 C-8.98497406 50.56116974 -9.25901062 51.42702698 -9.54135132 52.31912231 C-10.91161097 56.64083288 -12.3015847 60.95364576 -13.75 65.25 C-19.63793464 64.3668098 -24.12814011 59.71639492 -28.75 56.25 C-25.40741161 44.71713639 -21.91831403 33.23668973 -18.30078125 21.78710938 C-17.48349228 19.19769871 -16.67138574 16.60669508 -15.859375 14.015625 C-15.33885159 12.3644856 -14.81803022 10.71344009 -14.296875 9.0625 C-14.05523621 8.2897876 -13.81359741 7.5170752 -13.56463623 6.72094727 C-10.96431267 -1.4716032 -8.03904075 0.040704 0 0 Z " fill="#CCD3DB" transform="translate(298.75,144.75)"/>
<path d="M0 0 C5.61 0 11.22 0 17 0 C18.62040865 4.81470703 20.23872811 9.63002907 21.85229492 14.44702148 C22.39901828 16.07728309 22.94682773 17.70718095 23.49584961 19.33666992 C26.41463788 28.00207341 29.27094838 36.68143823 31.89453125 45.44140625 C32.10865158 46.14498764 32.32277191 46.84856903 32.54338074 47.57347107 C33.52338186 50.90383836 34 53.48878734 34 57 C31.79924404 58.88508596 29.70781018 60.46642419 27.3125 62.0625 C26.68666016 62.49626953 26.06082031 62.93003906 25.41601562 63.37695312 C23.62553417 64.60872937 21.81677847 65.80747989 20 67 C19.09894531 67.60972656 18.19789063 68.21945312 17.26953125 68.84765625 C15 70 15 70 11.375 69.375 C6.36912752 67.33557047 6.36912752 67.33557047 5 65 C4.5 61.625 4.5 61.625 5 58 C7.62451154 54.79226367 10.6194173 52.37892857 14 50 C12.23380453 40.91814261 9.2353369 32.2629462 6.31347656 23.50463867 C3.72705114 15.73144691 1.38239429 8.09800289 0 0 Z " fill="#57A4C7" transform="translate(296,218)"/>
<path d="M0 0 C0.72638729 2.07710746 1.43053408 4.16200312 2.125 6.25 C2.71667969 7.99023438 2.71667969 7.99023438 3.3203125 9.765625 C4.08170055 13.38878195 3.92326719 14.00349585 2 17 C0.33032227 18.51708984 0.33032227 18.51708984 -1.68359375 19.9609375 C-2.43745361 20.50830566 -3.19131348 21.05567383 -3.96801758 21.61962891 C-4.78294678 22.19890137 -5.59787598 22.77817383 -6.4375 23.375 C-8.15906463 24.61950057 -9.88041233 25.86430128 -11.6015625 27.109375 C-12.49004883 27.74810547 -13.37853516 28.38683594 -14.29394531 29.04492188 C-19.45755982 32.77554484 -24.56278175 36.58575563 -29.67944336 40.38037109 C-31.13100578 41.45220188 -32.58733494 42.51762031 -34.04931641 43.57519531 C-35.28367165 44.47678445 -36.50216698 45.40086653 -37.69677734 46.35449219 C-39.23046875 47.5234375 -39.23046875 47.5234375 -42 49 C-46.55772168 48.16331679 -50.46105769 44.79620107 -54.1875 42.125 C-54.81591797 41.69058594 -55.44433594 41.25617188 -56.09179688 40.80859375 C-61.91825154 36.65841321 -61.91825154 36.65841321 -63 33 C-62.82182521 29.61467902 -62.64641794 27.0206599 -60.8125 24.125 C-57.9986725 22.37848638 -56.35868755 22 -53 22 C-50.62192483 23.17435811 -48.44889658 24.49236165 -46.24609375 25.96875 C-43.27518863 27.33278296 -42.06529802 27.09905542 -39 26 C-36.15863363 24.11978194 -36.15863363 24.11978194 -33.25 21.6875 C-27.27117187 16.91674684 -21.10338808 12.47959093 -14.82519531 8.11206055 C-14.14038086 7.63422119 -13.45556641 7.15638184 -12.75 6.6640625 C-12.1003125 6.21192383 -11.450625 5.75978516 -10.78125 5.29394531 C-9.21283887 4.15461157 -7.72333683 2.90830791 -6.25 1.6484375 C-4 0 -4 0 0 0 Z " fill="#4F9BB7" transform="translate(290,225)"/>
<path d="M0 0 C2.875 1.5 2.875 1.5 5 4 C5.64028797 9.57965228 4.61912522 13.60941845 3 19 C3.48766846 19.35191406 3.97533691 19.70382813 4.4777832 20.06640625 C13.66314376 26.69552997 22.84436344 33.329866 32 40 C34.06238795 41.50015405 36.12488682 43.00015564 38.1875 44.5 C39.79166667 45.66666667 41.39583333 46.83333333 43 48 C41.71568157 51.8529553 39.9722133 52.88722448 36.75 55.3125 C35.79609375 56.05113281 34.8421875 56.78976563 33.859375 57.55078125 C31 59 31 59 28.68359375 58.625 C24.7068277 56.2169437 21.01928303 53.48931773 17.3125 50.6875 C15.61775318 49.42241892 13.92242561 48.15811553 12.2265625 46.89453125 C11.36321289 46.2495166 10.49986328 45.60450195 9.61035156 44.93994141 C5.49559534 41.88196788 1.34447314 38.87521251 -2.8125 35.875 C-3.54621826 35.34350342 -4.27993652 34.81200684 -5.03588867 34.2644043 C-8.97141492 31.42337082 -12.94178622 28.6630037 -17 26 C-15.91706543 20.6755717 -14.64678145 15.42200757 -13.1875 10.1875 C-12.89230469 9.10855469 -12.59710938 8.02960938 -12.29296875 6.91796875 C-9.82217758 1.34189321 -6.02662863 -1.0044381 0 0 Z " fill="#C0D0DA" transform="translate(238,170)"/>
<path d="M0 0 C19.14 0 38.28 0 58 0 C59.83578188 4.89541834 61.64478495 9.72211463 63.25 14.6875 C63.60578125 15.76386719 63.9615625 16.84023437 64.328125 17.94921875 C65.02852464 21.12952177 64.97279941 22.92125023 64 26 C62.375 28.3125 62.375 28.3125 60 30 C56.44675747 30.44415532 54.03867332 30.46163259 50.75 29 C47.54604889 25.33834159 46 20.83853565 46 16 C20.755 16.495 20.755 16.495 -5 17 C-4 10 -4 10 0 0 Z " fill="#9BBDCF" transform="translate(298,194)"/>
<path d="M0 0 C0.99 0.33 1.98 0.66 3 1 C4.203125 3.8359375 4.203125 3.8359375 5.25 7.375 C5.60578125 8.53773438 5.9615625 9.70046875 6.328125 10.8984375 C7 14 7 14 6 17 C3.98934482 18.59897801 1.99415626 20.05871226 -0.125 21.5 C-1.39944918 22.38265562 -2.67285017 23.26682623 -3.9453125 24.15234375 C-4.94159668 24.84432861 -4.94159668 24.84432861 -5.95800781 25.55029297 C-8.02290592 27.016262 -10.04189623 28.52981669 -12.0546875 30.06640625 C-12.71452637 30.5665625 -13.37436523 31.06671875 -14.05419922 31.58203125 C-15.3251625 32.54904773 -16.59013376 33.52400487 -17.84814453 34.5078125 C-21.50518299 37.26541446 -24.27019688 38.82013425 -29 39 C-32.375 37.625 -32.375 37.625 -35 35 C-36.04679193 31.76616065 -35.97576751 29.24886228 -35 26 C-32.8145632 23.02104151 -30.00340186 21.11252495 -27 19 C-25.94683594 18.22785156 -24.89367187 17.45570313 -23.80859375 16.66015625 C-20.84792079 14.50128846 -17.8533641 12.39485635 -14.84765625 10.29931641 C-12.98899376 8.99226015 -11.14958349 7.66139226 -9.3125 6.32421875 C-8.1460267 5.48670978 -6.97936735 4.64945987 -5.8125 3.8125 C-4.24435547 2.67748047 -4.24435547 2.67748047 -2.64453125 1.51953125 C-1.77183594 1.01808594 -0.89914062 0.51664063 0 0 Z " fill="#3A94B7" transform="translate(295,249)"/>
<path d="M0 0 C1.48831242 0.00667405 2.97660807 0.01863442 4.46484375 0.03515625 C5.22345703 0.03966797 5.98207031 0.04417969 6.76367188 0.04882812 C8.64326246 0.06064945 10.52281274 0.07858547 12.40234375 0.09765625 C15.50127864 7.55790012 18.20202089 15.10887288 20.71484375 22.78515625 C21.08673828 23.87376953 21.45863281 24.96238281 21.84179688 26.08398438 C23.72726797 31.85977572 25.07782641 36.16839965 23.40234375 42.09765625 C21.72549973 44.7453047 20.55095514 45.0524267 17.52734375 45.97265625 C13.66533879 46.12713645 12.44035955 45.44673619 9.40234375 43.09765625 C7.8828125 40.21875 7.8828125 40.21875 6.58984375 36.53515625 C6.35120605 35.86419922 6.11256836 35.19324219 5.86669922 34.50195312 C2.03237215 23.48583213 -1.24988843 12.26881732 -4.59765625 1.09765625 C-3.59765625 0.09765625 -3.59765625 0.09765625 0 0 Z " fill="#62A5C3" transform="translate(325.59765625,217.90234375)"/>
<path d="M0 0 C2.5 2.4375 2.5 2.4375 4 6 C3.47481347 14.11432504 0.11126 22.13312977 -2.5 29.75 C-2.90347656 30.94238281 -3.30695313 32.13476562 -3.72265625 33.36328125 C-4.47181512 35.57614327 -5.22345525 37.78816814 -5.97851562 39.99902344 C-6.99837142 42.99521546 -8.00216687 45.99641016 -9 49 C-12.76119476 48.37606349 -15.18960042 46.65226285 -18.25 44.4375 C-19.58804688 43.47650391 -19.58804688 43.47650391 -20.953125 42.49609375 C-21.62859375 42.00238281 -22.3040625 41.50867188 -23 41 C-22.52200861 33.55289409 -20.18565202 26.76178248 -17.81689453 19.74389648 C-17.12208897 17.67884807 -16.44522762 15.60847837 -15.76953125 13.53710938 C-15.32918848 12.21579094 -14.88781844 10.89481432 -14.4453125 9.57421875 C-13.85000732 7.78890747 -13.85000732 7.78890747 -13.24267578 5.9675293 C-12.08656281 3.20671336 -11.3608847 1.77160247 -9 0 C-5.3678011 -1.21073297 -3.65436277 -1.11868248 0 0 Z " fill="#D9DADC" transform="translate(273,146)"/>
<path d="M0 0 C3.01616931 1.61948164 5.66514023 3.66704808 8.375 5.75 C9.15214355 6.32967529 9.92928711 6.90935059 10.72998047 7.5065918 C13.16295343 9.32528467 15.58118516 11.16253748 18 13 C19.5768614 14.18007578 21.15495451 15.35850778 22.734375 16.53515625 C26.49998805 19.34315971 30.25320938 22.16693625 34 25 C32.50794885 28.75096658 30.43143219 30.53080912 27.1875 32.875 C26.33542969 33.51179688 25.48335937 34.14859375 24.60546875 34.8046875 C22 36 22 36 19.546875 35.4765625 C16.49504126 33.70724785 13.82238177 31.69955269 11.0625 29.5 C7.47179761 26.65942979 3.86849939 23.87342703 0.109375 21.2578125 C-0.52492432 20.81630859 -1.15922363 20.37480469 -1.81274414 19.91992188 C-3.03885969 19.07302555 -4.26966886 18.23287444 -5.50561523 17.40039062 C-8.57453782 15.27333573 -10.86340864 13.6415789 -12 10 C-11.80282702 6.77950797 -11.58677286 4.73984404 -9.5625 2.1875 C-6.30692353 -0.28673812 -4.05900302 -0.50387624 0 0 Z " fill="#7BAABA" transform="translate(226,208)"/>
<path d="M0 0 C5.60500964 -0.09903517 11.20950762 -0.17154712 16.81518555 -0.21972656 C18.7212003 -0.23981546 20.62715362 -0.26709194 22.53295898 -0.30175781 C25.27603326 -0.35039642 28.01829125 -0.37299579 30.76171875 -0.390625 C31.61086349 -0.41127014 32.46000824 -0.43191528 33.33488464 -0.45318604 C37.37229773 -0.45470992 39.49696718 -0.29959657 43.03833008 1.80957031 C45 4 45 4 45.625 7.4375 C44.81951731 12.02875131 43.72609916 13.21976357 40 16 C36.61947621 16.68005405 33.32311225 16.58296122 29.88671875 16.48828125 C28.91716751 16.48120651 27.94761627 16.47413177 26.94868469 16.46684265 C23.86082863 16.43891874 20.77480525 16.37618303 17.6875 16.3125 C15.59052103 16.28741458 13.49351356 16.26460184 11.39648438 16.24414062 C6.26361991 16.18909838 1.13212036 16.10283859 -4 16 C-3.39891424 10.34979382 -1.92471317 5.33835539 0 0 Z " fill="#C6D2DA" transform="translate(305,170)"/>
<path d="M0 0 C4.07600997 2.3546968 7.48239679 4.44719038 9 9 C8.50628906 9.40992188 8.01257813 9.81984375 7.50390625 10.2421875 C6.54291016 11.05042969 6.54291016 11.05042969 5.5625 11.875 C4.92441406 12.40867188 4.28632813 12.94234375 3.62890625 13.4921875 C1.89194996 14.9222757 1.89194996 14.9222757 1 17 C-3.44941586 17.39259552 -6.22346468 16.3498442 -10 14 C-12.0345567 11.43468938 -12.01421348 10.23215352 -11.8125 6.9375 C-10.98370706 3.94109475 -10.42883312 2.84591317 -8 1 C-5.02536663 -0.48731668 -3.32721157 -0.4313052 0 0 Z " fill="#9BB6BF" transform="translate(226,208)"/>
<path d="M0 0 C0.66 0.33 1.32 0.66 2 1 C-0.97 4.96 -0.97 4.96 -4 9 C-4.66 8.67 -5.32 8.34 -6 8 C-6.33 10.31 -6.66 12.62 -7 15 C-6.01 15 -5.02 15 -4 15 C-3.67 13.68 -3.34 12.36 -3 11 C-1.1875 10.375 -1.1875 10.375 1 10 C4 12 4 12 4.6875 14.125 C4.790625 14.74375 4.89375 15.3625 5 16 C5.268125 15.360625 5.53625 14.72125 5.8125 14.0625 C7 12 7 12 10 11 C10.66 11.66 11.32 12.32 12 13 C3.28869236 20.22994315 3.28869236 20.22994315 -2 20 C-5.375 18.625 -5.375 18.625 -8 16 C-9.04653483 12.76695489 -9.03163525 10.23607688 -8 7 C-5.64140637 4.20236081 -2.9984799 2.08153404 0 0 Z " fill="#2287A8" transform="translate(268,268)"/>
<path d="M0 0 C1.07174763 3.65188082 0.76411467 6.26432828 0 10 C-0.66 10 -1.32 10 -2 10 C-2 10.99 -2 11.98 -2 13 C22.75 13.495 22.75 13.495 48 14 C48.66 15.32 49.32 16.64 50 18 C50.66 18.66 51.32 19.32 52 20 C51.505 20.495 51.505 20.495 51 21 C52.32 21.33 53.64 21.66 55 22 C55.495 24.475 55.495 24.475 56 27 C57.65 27.33 59.3 27.66 61 28 C61 28.33 61 28.66 61 29 C54.80425532 29.35744681 54.80425532 29.35744681 51.75 28 C48.54604889 24.33834159 47 19.83853565 47 15 C21.755 15.495 21.755 15.495 -4 16 C-2.875 8.125 -2.875 8.125 -1.4375 4.0625 C-1.16808594 3.29035156 -0.89867187 2.51820313 -0.62109375 1.72265625 C-0.41613281 1.15417969 -0.21117187 0.58570313 0 0 Z " fill="#7F99A6" transform="translate(297,195)"/>
<path d="M0 0 C1.48831242 0.00667405 2.97660807 0.01863442 4.46484375 0.03515625 C5.22345703 0.03966797 5.98207031 0.04417969 6.76367188 0.04882812 C8.64326246 0.06064945 10.52281274 0.07858547 12.40234375 0.09765625 C14.42743278 5.02160368 16.41393162 9.96178501 18.21484375 14.97265625 C18.46878906 15.67132813 18.72273438 16.37 18.984375 17.08984375 C19.46830734 19.41452806 19.13857943 20.86390719 18.40234375 23.09765625 C18.40234375 22.43765625 18.40234375 21.77765625 18.40234375 21.09765625 C17.08234375 20.76765625 15.76234375 20.43765625 14.40234375 20.09765625 C14.20703125 18.046875 14.01171875 15.99609375 13.81640625 13.9453125 C13.67976563 13.33558594 13.543125 12.72585937 13.40234375 12.09765625 C12.74234375 11.76765625 12.08234375 11.43765625 11.40234375 11.09765625 C11.73234375 9.77765625 12.06234375 8.45765625 12.40234375 7.09765625 C11.74234375 7.09765625 11.08234375 7.09765625 10.40234375 7.09765625 C10.07234375 7.75765625 9.74234375 8.41765625 9.40234375 9.09765625 C9.40234375 7.09765625 9.40234375 5.09765625 9.40234375 3.09765625 C5.44234375 2.76765625 1.48234375 2.43765625 -2.59765625 2.09765625 C-2.92765625 3.08765625 -3.25765625 4.07765625 -3.59765625 5.09765625 C-4.16015625 3.16015625 -4.16015625 3.16015625 -4.59765625 1.09765625 C-3.59765625 0.09765625 -3.59765625 0.09765625 0 0 Z " fill="#578195" transform="translate(325.59765625,217.90234375)"/>
<path d="M0 0 C18.81 0 37.62 0 57 0 C59 5 59 5 58 8 C57.71125 7.360625 57.4225 6.72125 57.125 6.0625 C56.17176549 3.84793921 56.17176549 3.84793921 54 3 C54.33 2.34 54.66 1.68 55 1 C53.02 1 51.04 1 49 1 C48.67 1.99 48.34 2.98 48 4 C47.01 3.34 46.02 2.68 45 2 C43.00239911 1.71192287 43.00239911 1.71192287 40.80395508 1.77294922 C39.54298759 1.77317581 39.54298759 1.77317581 38.25654602 1.77340698 C36.90172371 1.78889084 36.90172371 1.78889084 35.51953125 1.8046875 C34.59154221 1.8075174 33.66355316 1.81034729 32.70744324 1.81326294 C29.74233121 1.82446164 26.77752079 1.84956565 23.8125 1.875 C21.80273874 1.8850302 19.79297274 1.89415598 17.78320312 1.90234375 C12.85535247 1.92439996 7.92772738 1.95892771 3 2 C2.34 3.98 1.68 5.96 1 8 C0.34 7.67 -0.32 7.34 -1 7 C-0.67 4.69 -0.34 2.38 0 0 Z " fill="#BED4E3" transform="translate(298,195)"/>
<path d="M0 0 C5.61 0 11.22 0 17 0 C17.845625 2.413125 18.69125 4.82625 19.5625 7.3125 C19.83263916 8.06829346 20.10277832 8.82408691 20.38110352 9.6027832 C22.11111111 14.66666667 22.11111111 14.66666667 21 18 C21 17.34 21 16.68 21 16 C20.34 16 19.68 16 19 16 C18.32968281 14.0429132 17.66385317 12.08428887 17 10.125 C16.62875 9.03445312 16.2575 7.94390625 15.875 6.8203125 C15 4 15 4 15 2 C13.58249437 2.11509661 12.16598831 2.24253658 10.75 2.375 C9.56664062 2.47941406 9.56664062 2.47941406 8.359375 2.5859375 C5.914123 3.01507113 4.15163097 3.78600638 2 5 C1.34 4.34 0.68 3.68 0 3 C0 2.01 0 1.02 0 0 Z " fill="#7194A1" transform="translate(296,218)"/>
<path d="M0 0 C-0.375 1.9375 -0.375 1.9375 -1 4 C-1.99 4.495 -1.99 4.495 -3 5 C-3.556875 5.94875 -4.11375 6.8975 -4.6875 7.875 C-7.61848954 11.83579668 -9.34063941 12.58555125 -14 14 C-16.4375 13.6875 -16.4375 13.6875 -18 13 C-15.18091811 9.19457267 -12.27243734 6.45804657 -8.4375 3.6875 C-7.48746094 2.99011719 -6.53742188 2.29273438 -5.55859375 1.57421875 C-3 0 -3 0 0 0 Z " fill="#72A9C2" transform="translate(289,225)"/>
<path d="M0 0 C0.99 0.33 1.98 0.66 3 1 C3 1.66 3 2.32 3 3 C4.32 3 5.64 3 7 3 C7 3.66 7 4.32 7 5 C7.66 5 8.32 5 9 5 C9 5.66 9 6.32 9 7 C10.65 7 12.3 7 14 7 C14.99 8.98 15.98 10.96 17 13 C17.99 13 18.98 13 20 13 C20 12.34 20 11.68 20 11 C23.465 10.505 23.465 10.505 27 10 C21.78106194 15.65384956 21.78106194 15.65384956 18 16 C16.0012207 15.07543945 16.0012207 15.07543945 13.92578125 13.61328125 C13.17619141 13.08669922 12.42660156 12.56011719 11.65429688 12.01757812 C10.88150391 11.45490234 10.10871094 10.89222656 9.3125 10.3125 C8.52810547 9.76916016 7.74371094 9.22582031 6.93554688 8.66601562 C1.18511833 4.5557266 1.18511833 4.5557266 0.27026367 1.80932617 C0.18107666 1.21224854 0.09188965 0.6151709 0 0 Z " fill="#306576" transform="translate(228,258)"/>
<path d="M0 0 C2.475 0.99 2.475 0.99 5 2 C4.67 3.65 4.34 5.3 4 7 C3.01 7.33 2.02 7.66 1 8 C1.33 9.65 1.66 11.3 2 13 C4.31 13.33 6.62 13.66 9 14 C7.4375 15.1875 7.4375 15.1875 5 16 C-1.62244898 13.75510204 -1.62244898 13.75510204 -3 11 C-3.46280992 4.75206612 -3.46280992 4.75206612 -1.5 1.5625 C-1.005 1.046875 -0.51 0.53125 0 0 Z " fill="#2A7898" transform="translate(304,272)"/>
<path d="M0 0 C3.465 1.98 3.465 1.98 7 4 C7 5.32 7 6.64 7 8 C4.69 9.32 2.38 10.64 0 12 C0 11.34 0 10.68 0 10 C-0.66 10 -1.32 10 -2 10 C-1.34 6.7 -0.68 3.4 0 0 Z " fill="#86AFBE" transform="translate(273,213)"/>
<path d="M0 0 C0.7425 0.185625 1.485 0.37125 2.25 0.5625 C4.92229373 1.17472428 4.92229373 1.17472428 7.1875 0.4375 C7.785625 0.293125 8.38375 0.14875 9 0 C9.66 0.66 10.32 1.32 11 2 C10.34 3.32 9.68 4.64 9 6 C9.763125 5.814375 10.52625 5.62875 11.3125 5.4375 C14 5 14 5 17 6 C17.33 6.99 17.66 7.98 18 9 C17.01 9 16.02 9 15 9 C15 9.66 15 10.32 15 11 C11.43503982 9.37879192 8.40991178 7.2405574 5.25 4.9375 C3.77273437 3.86822266 3.77273437 3.86822266 2.265625 2.77734375 C1.51796875 2.19082031 0.7703125 1.60429687 0 1 C0 0.67 0 0.34 0 0 Z " fill="#7B98A5" transform="translate(248,214)"/>
<path d="M0 0 C4.44504873 1.13305164 8.27769973 2.26301451 12 5 C12.33 5.99 12.66 6.98 13 8 C14.65 7.67 16.3 7.34 18 7 C18 8.98 18 10.96 18 13 C13.35075551 11.46776311 9.97883359 8.92576405 6.1875 5.9375 C5.2912793 5.24817383 5.2912793 5.24817383 4.37695312 4.54492188 C2.89532936 3.39179526 1.44456694 2.19922322 0 1 C0 0.67 0 0.34 0 0 Z " fill="#829095" transform="translate(230,201)"/>
<path d="M0 0 C1.48831242 0.00667405 2.97660807 0.01863442 4.46484375 0.03515625 C5.22345703 0.03966797 5.98207031 0.04417969 6.76367188 0.04882812 C8.64326246 0.06064945 10.52281274 0.07858547 12.40234375 0.09765625 C12.73234375 2.73765625 13.06234375 5.37765625 13.40234375 8.09765625 C12.41234375 7.76765625 11.42234375 7.43765625 10.40234375 7.09765625 C10.07234375 7.75765625 9.74234375 8.41765625 9.40234375 9.09765625 C9.40234375 7.09765625 9.40234375 5.09765625 9.40234375 3.09765625 C5.44234375 2.76765625 1.48234375 2.43765625 -2.59765625 2.09765625 C-2.92765625 3.08765625 -3.25765625 4.07765625 -3.59765625 5.09765625 C-4.16015625 3.16015625 -4.16015625 3.16015625 -4.59765625 1.09765625 C-3.59765625 0.09765625 -3.59765625 0.09765625 0 0 Z " fill="#698B9B" transform="translate(325.59765625,217.90234375)"/>
<path d="M0 0 C0.66 0.33 1.32 0.66 2 1 C0.3125 4 0.3125 4 -2 7 C-4.75 7.375 -4.75 7.375 -7 7 C-7.66 8.65 -8.32 10.3 -9 12 C-11.31 12.33 -13.62 12.66 -16 13 C-11.3126338 7.82773385 -5.68271819 4.01074507 0 0 Z " fill="#42798F" transform="translate(293,250)"/>
<path d="M0 0 C1.65 1.65 3.3 3.3 5 5 C4.67 5.33 4.34 5.66 4 6 C5.32 6.33 6.64 6.66 8 7 C8.33 8.65 8.66 10.3 9 12 C10.65 12.33 12.3 12.66 14 13 C14 13.33 14 13.66 14 14 C7.80425532 14.35744681 7.80425532 14.35744681 4.75 13 C1.54604889 9.33834159 0 4.83853565 0 0 Z " fill="#6A8A9B" transform="translate(344,210)"/>
<path d="M0 0 C0.66 0.66 1.32 1.32 2 2 C4.79216791 2.24569272 7.49240605 2.37363138 10.2890625 2.4140625 C11.10748627 2.43342865 11.92591003 2.4527948 12.76913452 2.4727478 C15.38764976 2.53261082 18.00620881 2.57895532 20.625 2.625 C22.39845686 2.66317364 24.17189505 2.70222501 25.9453125 2.7421875 C30.29672375 2.83831771 34.64822179 2.92232351 39 3 C39 3.33 39 3.66 39 4 C25.8 4 12.6 4 -1 4 C-0.67 2.68 -0.34 1.36 0 0 Z " fill="#D2E2F0" transform="translate(303,181)"/>
<path d="M0 0 C0.66 0.33 1.32 0.66 2 1 C-0.97 4.96 -0.97 4.96 -4 9 C-4.66 8.67 -5.32 8.34 -6 8 C-6.29562367 13.32170494 -6.29562367 13.32170494 -4 18 C-5.32 17.34 -6.64 16.68 -8 16 C-8.51202529 12.86384508 -8.67139297 10.12000263 -8 7 C-5.66811236 4.17718864 -2.9991294 2.08198492 0 0 Z " fill="#215B70" transform="translate(268,268)"/>
<path d="M0 0 C0.99 0.33 1.98 0.66 3 1 C3.33 4.3 3.66 7.6 4 11 C2.68 10.67 1.36 10.34 0 10 C0 9.34 0 8.68 0 8 C-0.66 7.67 -1.32 7.34 -2 7 C-1.125 2.25 -1.125 2.25 0 0 Z " fill="#58A5C6" transform="translate(295,249)"/>
<path d="M0 0 C3.1875 0.875 3.1875 0.875 6.25 2.9375 C9.32597413 4.966334 10.60675855 5.2962637 14.1875 4.875 C13.8575 5.865 13.5275 6.855 13.1875 7.875 C10.8775 7.545 8.5675 7.215 6.1875 6.875 C6.1875 6.215 6.1875 5.555 6.1875 4.875 C4.5375 4.545 2.8875 4.215 1.1875 3.875 C1.1875 3.215 1.1875 2.555 1.1875 1.875 C-1.1225 1.875 -3.4325 1.875 -5.8125 1.875 C-2.8125 -0.125 -2.8125 -0.125 0 0 Z " fill="#365D6B" transform="translate(236.8125,247.125)"/>
<path d="M0 0 C1.73169596 3.1622274 2.7128976 6.26742722 3.625 9.75 C3.88539063 10.73484375 4.14578125 11.7196875 4.4140625 12.734375 C4.60742188 13.48203125 4.80078125 14.2296875 5 15 C3.68 15.99 2.36 16.98 1 18 C-0.10255386 14.69233843 0.17912789 14.19228042 1 11 C1.03845443 9.00036972 1.04544281 6.99948367 1 5 C0.01 5.33 -0.98 5.66 -2 6 C-2.33 5.01 -2.66 4.02 -3 3 C-2.34 3 -1.68 3 -1 3 C-0.67 2.01 -0.34 1.02 0 0 Z " fill="#5E8FA4" transform="translate(289,225)"/>
<path d="M0 0 C0.33 0.66 0.66 1.32 1 2 C2.98 1.67 4.96 1.34 7 1 C2.8 5.55 2.8 5.55 0 7.125 C-2 7 -2 7 -4.75 4.5625 C-5.4925 3.716875 -6.235 2.87125 -7 2 C-4.03 2.495 -4.03 2.495 -1 3 C-0.67 2.01 -0.34 1.02 0 0 Z " fill="#4F7988" transform="translate(248,237)"/>
<path d="M0 0 C1 4 1 4 0 7 C0.66 7 1.32 7 2 7 C1.67 8.32 1.34 9.64 1 11 C0.34 11 -0.32 11 -1 11 C-0.67 12.65 -0.34 14.3 0 16 C-1.32 15.34 -2.64 14.68 -4 14 C-2.68 9.38 -1.36 4.76 0 0 Z " fill="#89989F" transform="translate(274,187)"/>
<path d="M0 0 C1.485 0.99 1.485 0.99 3 2 C3.99 1.67 4.98 1.34 6 1 C6.433125 1.45375 6.86625 1.9075 7.3125 2.375 C9.10798342 4.20024334 9.10798342 4.20024334 12 6 C8.47078888 6.90282145 6.59289113 7.25033181 3.1875 5.8125 C0.83246285 3.86118351 0.30891997 2.98622637 0 0 Z " fill="#397793" transform="translate(334,257)"/>
<path d="M0 0 C0.66 0.33 1.32 0.66 2 1 C1.06677104 4.22388187 0.58700229 5.66015657 -2.375 7.375 C-5 8 -5 8 -9 7 C-6.03 4.69 -3.06 2.38 0 0 Z " fill="#4B7D8F" transform="translate(264,241)"/>
<path d="M0 0 C0.99 0 1.98 0 3 0 C2.71640113 1.4391134 2.42278601 2.87625518 2.125 4.3125 C1.96257812 5.11300781 1.80015625 5.91351563 1.6328125 6.73828125 C1 9 1 9 -1 12 C-1 10.68 -1 9.36 -1 8 C-1.66 7.67 -2.32 7.34 -3 7 C-2.01 4.69 -1.02 2.38 0 0 Z " fill="#AAACB1" transform="translate(268,171)"/>
<path d="M0 0 C0.33 0.66 0.66 1.32 1 2 C1.99 2.33 2.98 2.66 4 3 C-1.75 8 -1.75 8 -4 8 C-4.33 6.68 -4.66 5.36 -5 4 C-3.35 2.68 -1.7 1.36 0 0 Z " fill="#297FA3" transform="translate(317,278)"/>
<path d="M0 0 C0 0.66 0 1.32 0 2 C0.66 2 1.32 2 2 2 C2 2.66 2 3.32 2 4 C-0.1875 4.8125 -0.1875 4.8125 -3 5 C-5.8125 2.5625 -5.8125 2.5625 -8 0 C-4.71303767 -0.79953138 -3.28976808 -1.09658936 0 0 Z " fill="#6194A4" transform="translate(242,234)"/>
<path d="M0 0 C0.66 0.33 1.32 0.66 2 1 C1.67 1.33 1.34 1.66 1 2 C1.99 2.66 2.98 3.32 4 4 C2.68 4 1.36 4 0 4 C-0.33 4.99 -0.66 5.98 -1 7 C-2.98 7.33 -4.96 7.66 -7 8 C-3.375 2.25 -3.375 2.25 0 0 Z " fill="#5C92A8" transform="translate(271,236)"/>
<path d="M0 0 C1.46726798 3.81489674 0.43336419 6.29011622 -1 10 C-2.32 9.67 -3.64 9.34 -5 9 C-4.34 8.34 -3.68 7.68 -3 7 C-3.7425 6.319375 -3.7425 6.319375 -4.5 5.625 C-6 4 -6 4 -6 2 C-3.525 2.495 -3.525 2.495 -1 3 C-0.67 2.01 -0.34 1.02 0 0 Z " fill="#85A2AA" transform="translate(286,200)"/>
<path d="M0 0 C3.61305558 -0.33609819 5.62603831 -0.19511045 8.875 1.5 C11.15043161 4.17697837 11.34642458 4.78556783 11.4375 8.125 C11 12 11 12 9 14 C9 11.03 9 8.06 9 5 C7.68 5 6.36 5 5 5 C5 3.68 5 2.36 5 1 C3.35 1 1.7 1 0 1 C0 0.67 0 0.34 0 0 Z " fill="#8C8C8C" transform="translate(232,170)"/>
<path d="M0 0 C1.73694677 2.60542016 2.69100448 4.58342775 3.6875 7.5 C3.95949219 8.2734375 4.23148437 9.046875 4.51171875 9.84375 C5 12 5 12 4 15 C4 14.34 4 13.68 4 13 C3.34 13 2.68 13 2 13 C-0.24828052 8.50343896 -0.16682272 4.92127034 0 0 Z " fill="#5F8396" transform="translate(313,221)"/>
<path d="M0 0 C0.66 1.32 1.32 2.64 2 4 C2.66 3.67 3.32 3.34 4 3 C3.67 4.32 3.34 5.64 3 7 C-0.93673644 5.68775452 -3.22719294 4.08089673 -6 1 C-3 0 -3 0 0 0 Z " fill="#A2C1C9" transform="translate(280,202)"/>
<path d="M0 0 C4.62 0 9.24 0 14 0 C14 0.33 14 0.66 14 1 C10.37 1.33 6.74 1.66 3 2 C2.34 3.98 1.68 5.96 1 8 C0.34 7.67 -0.32 7.34 -1 7 C-0.67 4.69 -0.34 2.38 0 0 Z " fill="#C5E2EC" transform="translate(298,195)"/>
<path d="M0 0 C1.74325447 2.6148817 2.41587957 4.0053433 3.125 6.9375 C3.29257812 7.60652344 3.46015625 8.27554687 3.6328125 8.96484375 C4 11 4 11 4 15 C3.34 15 2.68 15 2 15 C2 13.68 2 12.36 2 11 C1.34 11 0.68 11 0 11 C0 7.37 0 3.74 0 0 Z " fill="#316580" transform="translate(326,260)"/>
<path d="M0 0 C-2.21765448 1.90449866 -4.4046186 3.64051451 -7 5 C-9.875 4.4375 -9.875 4.4375 -12 3 C-12.33 2.34 -12.66 1.68 -13 1 C-10.03 1.495 -10.03 1.495 -7 2 C-7 1.34 -7 0.68 -7 0 C-3.86650268 -1.04449911 -3.01031744 -0.93423645 0 0 Z " fill="#245B6F" transform="translate(255,269)"/>
<path d="M0 0 C0.66 0 1.32 0 2 0 C2 1.32 2 2.64 2 4 C2.66 4.33 3.32 4.66 4 5 C3.67 5.66 3.34 6.32 3 7 C3.66 7 4.32 7 5 7 C5 9.64 5 12.28 5 15 C3.25050228 12.37575342 2.34610019 10.44272784 1.375 7.5 C0.98441406 6.33984375 0.98441406 6.33984375 0.5859375 5.15625 C0 3 0 3 0 0 Z " fill="#507B90" transform="translate(300,231)"/>
<path d="M0 0 C-0.375 1.9375 -0.375 1.9375 -1 4 C-1.99 4.495 -1.99 4.495 -3 5 C-3.99 5.66 -4.98 6.32 -6 7 C-6.99 6.34 -7.98 5.68 -9 5 C-3.375 0 -3.375 0 0 0 Z " fill="#79A5B9" transform="translate(289,225)"/>
<path d="M0 0 C2.64 0 5.28 0 8 0 C7.01 0.495 7.01 0.495 6 1 C6 1.99 6 2.98 6 4 C4.35 4.33 2.7 4.66 1 5 C0.67 3.35 0.34 1.7 0 0 Z " fill="#90C9E2" transform="translate(323,220)"/>
<path d="M0 0 C1.32 0 2.64 0 4 0 C3.67 1.32 3.34 2.64 3 4 C4.65 4 6.3 4 8 4 C8 4.33 8 4.66 8 5 C6.35 5 4.7 5 3 5 C2.34 6.32 1.68 7.64 1 9 C1 7.35 1 5.7 1 4 C0.34 3.67 -0.32 3.34 -1 3 C-0.67 2.01 -0.34 1.02 0 0 Z " fill="#DFDFE6" transform="translate(296,156)"/>
<path d="M0 0 C1.07174763 3.65188082 0.76411467 6.26432828 0 10 C-0.66 10 -1.32 10 -2 10 C-2 11.98 -2 13.96 -2 16 C-2.66 16 -3.32 16 -4 16 C-3.39891424 10.34979382 -1.92471317 5.33835539 0 0 Z " fill="#667B80" transform="translate(297,195)"/>
<path d="M0 0 C4.455 2.97 4.455 2.97 9 6 C5 7 5 7 2 7 C2 6.01 2 5.02 2 4 C1.34 3.67 0.68 3.34 0 3 C0 2.01 0 1.02 0 0 Z " fill="#8B9BA6" transform="translate(254,199)"/>
<path d="M0 0 C1.32 0.33 2.64 0.66 4 1 C2.63016497 4.16115776 2.0109362 4.9927092 -1 7 C-3.1875 6.625 -3.1875 6.625 -5 6 C-4.360625 5.566875 -3.72125 5.13375 -3.0625 4.6875 C-0.73253997 3.08760823 -0.73253997 3.08760823 0 0 Z " fill="#337490" transform="translate(311,265)"/>
<path d="M0 0 C0.33 0.99 0.66 1.98 1 3 C0.01 3 -0.98 3 -2 3 C-2 3.66 -2 4.32 -2 5 C-3.9375 4.1875 -3.9375 4.1875 -6 3 C-6.33 2.01 -6.66 1.02 -7 0 C-4.3333581 -1.33332095 -2.83319697 -0.67102033 0 0 Z " fill="#83ABC1" transform="translate(265,220)"/>
<path d="M0 0 C2.64 0.66 5.28 1.32 8 2 C8.33 1.34 8.66 0.68 9 0 C9 1.65 9 3.3 9 5 C4.68607774 4.5206753 2.83430453 3.2542015 0 0 Z " fill="#74959D" transform="translate(219,223)"/>
<path d="M0 0 C0.99 0 1.98 0 3 0 C2.34 1.65 1.68 3.3 1 5 C-1.31 5.33 -3.62 5.66 -6 6 C-4 4 -2 2 0 0 Z " fill="#387286" transform="translate(283,257)"/>
<path d="M0 0 C1.5625 1.1875 1.5625 1.1875 3 3 C2.6875 5.6875 2.6875 5.6875 2 8 C1.01 8 0.02 8 -1 8 C-1.04241723 5.66705225 -1.04092937 3.33297433 -1 1 C-0.67 0.67 -0.34 0.34 0 0 Z " fill="#2F99BD" transform="translate(262,275)"/>
<path d="M0 0 C2.125 0.9375 2.125 0.9375 4 2 C3.34 3.32 2.68 4.64 2 6 C1.01 5.67 0.02 5.34 -1 5 C-1.6875 2.9375 -1.6875 2.9375 -2 1 C-1.34 0.67 -0.68 0.34 0 0 Z " fill="#6690A1" transform="translate(256,231)"/>
<path d="M0 0 C-0.66 1.32 -1.32 2.64 -2 4 C-3.65 4 -5.3 4 -7 4 C-7.33 3.34 -7.66 2.68 -8 2 C-4.77208445 -0.1519437 -3.71599191 -0.20086443 0 0 Z " fill="#BBC8CF" transform="translate(349,181)"/>
<path d="M0 0 C1.134375 0.020625 2.26875 0.04125 3.4375 0.0625 C2.839375 0.289375 2.24125 0.51625 1.625 0.75 C-1.1176169 2.39557014 -1.98218093 4.33285797 -3.5625 7.0625 C-4.2225 7.0625 -4.8825 7.0625 -5.5625 7.0625 C-4.52245509 0.07934132 -4.52245509 0.07934132 0 0 Z " fill="#E1E0E0" transform="translate(233.5625,170.9375)"/>
<path d="M0 0 C2.66666667 0.66666667 5.33333333 1.33333333 8 2 C8 2.66 8 3.32 8 4 C5.69 4 3.38 4 1 4 C0.67 2.68 0.34 1.36 0 0 Z " fill="#37A4CE" transform="translate(305,282)"/>
<path d="M0 0 C2.125 0.9375 2.125 0.9375 4 2 C1.03 4.475 1.03 4.475 -2 7 C-2.66 6.67 -3.32 6.34 -4 6 C-2.25 1.125 -2.25 1.125 0 0 Z " fill="#1C5A71" transform="translate(276,279)"/>
<path d="M0 0 C1.65 0 3.3 0 5 0 C5.66 1.65 6.32 3.3 7 5 C4.625 4.75 4.625 4.75 2 4 C0.6875 1.9375 0.6875 1.9375 0 0 Z " fill="#2F778C" transform="translate(237,265)"/>
<path d="M0 0 C2.88437779 1.29299694 4.87219421 2.65941363 7 5 C5.68 5.33 4.36 5.66 3 6 C2.67 5.34 2.34 4.68 2 4 C1.01 4.495 1.01 4.495 0 5 C-0.33 4.01 -0.66 3.02 -1 2 C-0.67 1.34 -0.34 0.68 0 0 Z " fill="#7D95A3" transform="translate(266,208)"/>
<path d="M0 0 C0.66 1.32 1.32 2.64 2 4 C2.66 4 3.32 4 4 4 C4.33 5.98 4.66 7.96 5 10 C4.67 9.01 4.34 8.02 4 7 C2.68 7 1.36 7 0 7 C0 4.69 0 2.38 0 0 Z " fill="#75B5D2" transform="translate(313,230)"/>
<path d="M0 0 C0.53625 0.185625 1.0725 0.37125 1.625 0.5625 C4.61990614 1.11419324 7.03745829 0.60597444 10 0 C8.68 1.32 7.36 2.64 6 4 C1.125 2.25 1.125 2.25 0 0 Z " fill="#5A7783" transform="translate(263,225)"/>
<path d="M0 0 C0.50490345 2.01961379 1.00953488 4.03933137 1.5 6.0625 C1.92981688 7.7280404 2.45605447 9.36816342 3 11 C0.525 10.01 0.525 10.01 -2 9 C-1.34 6.03 -0.68 3.06 0 0 Z " fill="#8A8A8B" transform="translate(223,187)"/>
<path d="M0 0 C0.66 0 1.32 0 2 0 C2 1.32 2 2.64 2 4 C2.66 4 3.32 4 4 4 C3.67 4.99 3.34 5.98 3 7 C2.01 7 1.02 7 0 7 C-1.04449911 3.86650268 -0.93423645 3.01031744 0 0 Z " fill="#3DA2CF" transform="translate(324,267)"/>
<path d="M0 0 C0 0.99 0 1.98 0 3 C-1.65 3.66 -3.3 4.32 -5 5 C-5.33 3.68 -5.66 2.36 -6 1 C-4 0 -4 0 0 0 Z " fill="#397F9F" transform="translate(297,266)"/>
<path d="M0 0 C1.32 0 2.64 0 4 0 C4 1.98 4 3.96 4 6 C3.01 5.67 2.02 5.34 1 5 C0.67 3.35 0.34 1.7 0 0 Z " fill="#97ADBA" transform="translate(244,208)"/>
<path d="M0 0 C1.25541557 3.76624671 0.37061958 5.37188934 -1 9 C-2.76462683 5.91190305 -3 4.76687864 -3 1 C-2.01 0.67 -1.02 0.34 0 0 Z " fill="#8395A1" transform="translate(289,191)"/>
<path d="M0 0 C0.99 0 1.98 0 3 0 C2.34 2.97 1.68 5.94 1 9 C-1.08954032 4.82091936 -1.16552619 4.19589427 0 0 Z " fill="#848B92" transform="translate(292,176)"/>
<path d="M0 0 C0.33 0 0.66 0 1 0 C1.33 1.98 1.66 3.96 2 6 C1.01 6.33 0.02 6.66 -1 7 C-1.73323796 9.01508358 -1.73323796 9.01508358 -2 11 C-3 9 -3 9 -2.44140625 6.8359375 C-2.15136719 6.02382812 -1.86132812 5.21171875 -1.5625 4.375 C-1.27503906 3.55773437 -0.98757812 2.74046875 -0.69140625 1.8984375 C-0.46324219 1.27195313 -0.23507813 0.64546875 0 0 Z " fill="#918F91" transform="translate(255,167)"/>
<path d="M0 0 C1.98 0 3.96 0 6 0 C4.35 1.65 2.7 3.3 1 5 C0.34 4.01 -0.32 3.02 -1 2 C-0.67 1.34 -0.34 0.68 0 0 Z " fill="#BDCDD1" transform="translate(218,209)"/>
<path d="M0 0 C0.66 0.66 1.32 1.32 2 2 C4.20250992 2.46006346 4.20250992 2.46006346 6.625 2.625 C7.44226563 2.69976562 8.25953125 2.77453125 9.1015625 2.8515625 C9.72804688 2.90054688 10.35453125 2.94953125 11 3 C11 3.33 11 3.66 11 4 C7.04 4 3.08 4 -1 4 C-0.67 2.68 -0.34 1.36 0 0 Z " fill="#E0F0F5" transform="translate(303,181)"/>
</svg>
